<?xml version="1.0" encoding="UTF-8" standalone="no" ?>
<!DOCTYPE svg PUBLIC "-//W3C//DTD SVG 1.1//EN" "http://www.w3.org/Graphics/SVG/1.1/DTD/svg11.dtd">
<svg xmlns="http://www.w3.org/2000/svg" xmlns:xlink="http://www.w3.org/1999/xlink" version="1.1" width="1280" height="1024" viewBox="0 0 1280 1024" xml:space="preserve">
<desc>Created with Fabric.js 5.3.0</desc>
<defs>
</defs>
<g transform="matrix(1 0 0 1 640 512)" id="background-logo"  >
<rect style="stroke: none; stroke-width: 0; stroke-dasharray: none; stroke-linecap: butt; stroke-dashoffset: 0; stroke-linejoin: miter; stroke-miterlimit: 4; fill: rgb(255,255,255); fill-opacity: 0; fill-rule: nonzero; opacity: 1;"  paint-order="stroke"  x="-640" y="-512" rx="0" ry="0" width="1280" height="1024" />
</g>
<g transform="matrix(1.966223947787202 0 0 1.966223947787202 272.327323480845 511.5725288831836)" id="logo-logo"  >
<g style=""  paint-order="stroke"   >
		<g transform="matrix(1.7333333333333334 0 0 1.7333333333333334 0 2.842171e-14)"  >
<path style="stroke: none; stroke-width: 1; stroke-dasharray: none; stroke-linecap: butt; stroke-dashoffset: 0; stroke-linejoin: miter; stroke-miterlimit: 4; fill: rgb(249,91,20); fill-rule: nonzero; opacity: 1;"  paint-order="stroke"  transform=" translate(-187.4999992411636, -150.00000004999998)" d="M 236.1963959 162.5099182 L 229.1638336 146.10134889999998 C 229.0449829 145.82612609999998 229.0387268 145.51412969999998 229.1450653 145.24749759999997 C 230.0270691 143.03701789999997 232.6793365 134.94337469999996 229.7784119 123.59539039999997 C 228.051941 116.84509289999997 222.7270813 109.71477519999998 215.530304 104.52049259999997 C 209.2984009 100.02211769999997 198.5220032 94.65893559999996 182.5818177 94.65893559999996 C 157.740265 94.65893559999996 141.2949525 107.36745459999996 138.5910798 128.65440369999996 C 138.3377381 130.65298459999997 138.95701609999998 132.65313719999995 140.294098 134.14112859999997 C 141.4313966 135.40734869999997 142.9839936 136.15583809999998 144.6723481 136.31417849999997 C 145.3551637 154.64274599999996 158.3938447 164.86241149999998 164.0378419 168.42669679999997 C 168.0193635 170.94134519999997 169.9475709 175.72042849999997 168.8325654 180.31889349999997 L 166.0551911 191.79823309999998 C 165.2591859 195.09324649999996 166.00669870000002 198.50866709999997 168.1069337 201.16952519999998 C 170.1993562 203.82179269999997 173.33483900000002 205.3410645 176.71116650000002 205.3410645 C 177.1177675 205.333252 177.42584240000002 205.100235 177.5165406 204.73742679999998 L 179.92797860000002 195.24258429999998 C 180.0374452 194.81410219999998 179.7778474 194.3785706 179.34936530000002 194.26988229999998 C 178.9130555 194.15571599999998 178.4845582 194.42079169999997 178.37666330000002 194.84849559999998 L 176.12316900000002 203.72171029999998 C 174.53245550000003 203.62338269999998 173.02452090000003 203.121399 171.7095337 202.28758249999998 L 176.6157684 182.2041017 C 178.537735 174.2637178 175.2020721 166.0058748 168.3117981 161.6568452 C 163.6922302 158.7387239 152.91426090000002 150.3432618 152.6327667 135.4445802 C 152.4904632 127.8075868 154.69859309999998 121.44355019999999 159.0179138 117.0413514 C 164.13479610000002 111.82752239999999 172.2823791 109.0712586 182.5818176 109.0712586 C 182.911972 109.0712586 183.23344419999998 109.0877762 183.5605774 109.0934449 L 183.5653687 109.56259159999999 L 183.6021271 113.15668489999999 L 183.6240082 115.30109409999999 C 183.4192505 118.02158359999999 181.3229218 120.25366979999998 178.5549317 120.56936649999999 C 173.6147767 121.13234719999998 169.7145692 122.74388129999998 167.2749787 125.2288208 C 165.4405976 127.0983887 164.28805549999998 129.67950439999998 163.84704599999998 132.9002228 C 163.7563478 133.5695496 163.95338449999997 134.2216645 164.40377819999998 134.73695379999998 C 164.86041269999998 135.25848399999998 165.51878369999997 135.55796819999998 166.21156319999997 135.55796819999998 C 166.21313489999997 135.55796819999998 166.21469129999997 135.55796819999998 166.21469129999997 135.55796819999998 L 178.35212719999998 135.52287299999998 L 179.9534913 135.51818859999997 L 183.7781526 135.50714119999998 L 183.779709 135.50714119999998 C 184.2207185 135.50714119999998 184.578827 135.86447149999998 184.5803987 136.305481 C 184.58059709999998 136.3486786 184.56271379999998 136.3858185 184.5562593 136.42716979999997 C 184.5625154 136.46665949999996 184.5801088 136.50202939999997 184.5803987 136.54318239999998 L 184.60141009999998 139.56939699999998 C 184.60141009999998 139.57067869999997 184.6007235 139.5718384 184.6007235 139.57312009999998 L 184.60659809999999 140.31613159999998 L 184.62330649999998 142.70899959999997 L 184.6256564 142.70899959999997 L 184.7774356 161.78898619999998 L 184.7774356 168.6682129 L 180.11407499999999 161.5419006 L 179.9978641 142.7089996 L 183.0218357 142.7089996 L 182.982941 137.1108551 L 179.963364 137.11955260000002 L 178.3619999 137.12414550000003 L 178.3212437 137.1243439 L 178.338242 139.569397 C 178.338242 139.5706787 178.3375554 139.57183840000002 178.3375554 139.5731201 L 178.34343 140.3161316 L 178.3601384 142.7089996 L 178.36248830000002 142.7089996 L 178.51426750000002 161.7889862 C 178.51525930000003 161.9331512 178.5647131 162.0606995 178.6322485 162.17701720000002 C 178.640061 162.19059750000002 178.6370398 162.20819090000003 178.6456305 162.22138980000003 L 184.7774359 171.59141540000002 L 184.7774359 175.51478580000003 C 184.7774359 183.05873110000002 190.153916 189.56663520000004 197.5633703 190.99050910000003 L 218.58602960000002 194.95092780000002 C 218.93164120000003 195.0166169 219.28193720000002 195.04867560000002 219.63224850000003 195.04867560000002 C 220.55490170000004 195.04867560000002 221.47287040000003 194.82426460000002 222.29232850000002 194.38951120000002 L 226.17846740000002 192.3338471 C 227.85177670000002 191.44636540000002 228.9683539 189.79339610000002 229.16539060000002 187.91131600000003 L 231.11706600000002 169.37046820000003 L 235.11579950000004 166.44844060000003 C 236.3574829 165.5414124 236.8016052 163.9212799 236.1963959 162.5099182 z M 173.643219 131.7484589 C 173.4182129 129.9121247 171.971283 128.4651795 170.1349487 128.2401886 C 171.9712829 128.0151825 173.4182129 126.56824490000001 173.643219 124.73191070000001 C 173.8682098 126.56824490000001 175.31515499999998 128.0151825 177.15148929999998 128.2401886 C 175.315155 128.4651794 173.8682098 129.9121246 173.643219 131.7484589 z M 182.5818176 107.4698868 C 171.8429413 107.4698868 163.2996978 110.39191439999999 157.8763122 115.9200821 C 153.2473602 120.6358337 150.8797149 127.3978653 151.0314025 135.4743042 C 151.32853690000002 151.1517639 162.61787410000002 159.9546051 167.4579467 163.0111237 C 173.7649078 166.9934388 176.82063290000002 174.5545807 175.0597533 181.8256531 L 170.3257293 201.2090149 C 169.9851074 200.8893128 169.65786740000001 200.552002 169.3627013 200.1780548 C 167.5705413 197.9058075 166.9309386 194.9884643 167.61276229999999 192.1751251 L 170.39013659999998 180.6957702 C 171.66467269999998 175.4287719 169.4565276 169.9537811 164.89169299999998 167.0724029 C 159.39323409999997 163.59991449999998 146.56820669999996 153.5772705 146.22885119999998 135.56578059999998 C 146.05213919999997 126.17024989999999 148.89363089999998 118.21344749999999 154.44525129999997 112.55470269999998 C 160.79443339999997 106.08511349999998 170.52307109999998 102.66577909999998 182.58181749999997 102.66577909999998 C 193.73118579999996 102.66577909999998 202.41244489999997 105.59758759999998 208.80325299999998 109.61390679999998 C 207.03964219999997 111.64279169999998 204.1579741 112.35472859999999 201.72161849999998 111.26375569999998 C 196.1058807 108.7459793 189.6660004 107.4698868 182.5818176 107.4698868 z M 220.6581116 146.5853577 L 226.9650727 161.2979431 C 227.19339 161.8312073 227.02606210000002 162.4434509 226.5584717 162.7859344 L 223.8139343 164.7915496 C 223.6309662 164.9252624 223.5136871 165.1293487 223.4902343 165.3545379 L 221.48069759999998 184.4356841 C 221.3884277 185.3145751 220.86610409999997 186.0855407 220.08575439999998 186.4983977 C 219.5587463 186.7767485 218.94415279999998 186.8697966 218.35771179999998 186.7603301 L 199.04745479999997 183.1228484 C 195.56010429999998 182.46603380000002 192.44650269999997 180.3861388 190.50265499999998 177.4171904 L 186.37881469999996 171.11532580000002 L 186.37881469999996 161.7764739 L 186.37881469999996 142.7089995 L 206.16584779999997 142.7089995 C 209.20135499999998 142.7089995 211.89857489999997 140.5786589 212.40554809999998 137.5857695 C 212.64326479999997 136.182617 212.73161319999997 134.7589415 212.675415 133.3365324 L 223.09867849999998 133.3365324 C 223.2035522 138.9237364 221.73149099999998 142.2507017 221.65115349999996 142.424774 L 220.72692859999995 144.2740172 C 220.3641205 144.9980621 220.3390961 145.8401947 220.6581116 146.5853577 z M 191.9931793 128.2401886 C 193.82951350000002 128.0151825 195.2764587 126.56824490000001 195.5014496 124.73191070000001 C 195.7263489 126.56824490000001 197.1733856 128.0151825 199.0096283 128.2401886 C 197.1733856 128.4651794 195.7263489 129.9121246 195.5014496 131.7484589 C 195.2764587 129.9121246 193.8295135 128.4651794 191.9931793 128.2401886 z M 212.5406342 131.7351685 C 212.5403443 131.7325287 212.5402375 131.729889 212.5399476 131.72734069999998 L 208.4445497 131.72734069999998 C 206.76655590000001 131.72734069999998 205.2199251 130.89929199999997 204.3066408 129.5129547 C 203.2057039 127.8419952 198.8081819 122.26925659999999 188.4899904 120.7351379 C 188.0521089 120.6702346 187.7502901 120.2628555 187.81597920000002 119.8249817 C 187.8800966 119.38789369999999 188.30076620000003 119.0891953 188.72456380000003 119.1509705 C 199.40087910000003 120.738266 204.11428850000001 126.3102112 205.6437227 128.6317292 C 206.25987260000002 129.5676881 207.3076479 130.1259766 208.4445497 130.1259766 L 212.2653047 130.1259766 C 212.2144777 129.880066 212.1843721 129.631897 212.1237642 129.3871613 C 212.10745260000002 129.3210907 212.09072890000002 129.2549134 212.0737306 129.1883545 C 210.7903139 124.172348 202.5482026 114.0671311 185.2042695 113.2138596 L 185.1624452 109.1315613 C 191.0052339 109.4035721 196.34553540000002 110.6082154 201.0679323 112.7243805 C 204.2010805 114.1324234 207.9487154 113.17974849999999 210.1543123 110.49337009999999 C 216.952408 115.1669007 220.8628847 121.0481949 222.0217897 125.57912449999999 C 222.5966951 127.82791909999999 222.8946077 129.8801575 223.025284 131.7351685 L 212.5406342 131.7351685 z M 184.5722809 133.3930206 C 184.2419281 130.6958923 182.11657720000002 128.5706482 179.41944890000002 128.2401886 C 182.11657720000002 127.90972900000001 184.24192810000002 125.78446960000001 184.5722809 123.08724210000001 C 184.90274050000002 125.78446960000001 187.0279999 127.90972900000001 189.7252197 128.2401886 C 187.0279999 128.5706482 184.9027405 130.6958923 184.5722809 133.3930206 z M 234.1712341 165.1551514 L 229.60014339999998 168.4962769 L 227.57341 187.743988 C 227.4310913 189.0951385 226.6304168 190.2820892 225.4293823 190.9185791 L 221.5432434 192.9742432 C 220.7316132 193.4058533 219.78706359999998 193.5497284 218.8831634 193.3777161 L 197.8636322 189.4172974 C 191.2079468 188.138855 186.37881470000002 182.2916718 186.37881470000002 175.5147858 L 186.37881470000002 174.0384217 L 189.1640015 178.29450999999997 C 191.3424225 181.62547309999997 194.83760070000002 183.95872509999998 198.75032050000002 184.69607559999997 L 218.06059270000003 188.33355729999997 C 219.00671390000002 188.51182569999997 219.98880010000002 188.36170979999997 220.83639530000002 187.91366589999996 C 222.08746340000002 187.25059519999996 222.92411810000002 186.01359569999997 223.07267760000002 184.60302749999997 L 225.04467770000002 165.87529009999997 L 227.50303650000004 164.07844559999998 C 228.57739260000002 163.2933962 228.96052550000005 161.89064039999997 228.43820190000002 160.66770949999997 L 222.13125610000003 145.95513929999998 C 221.99832150000003 145.6447145 222.00770570000003 145.29284679999998 222.15940860000003 144.99102799999997 L 223.09457400000002 143.11755389999996 C 223.22750860000002 142.82824729999996 226.31764220000002 135.91687029999997 223.57310490000003 125.18190779999996 C 221.18826300000003 115.85752879999995 207.95037850000003 101.06441509999996 182.58181770000004 101.06441509999996 C 170.08363350000005 101.06441509999996 159.95935070000004 104.65029159999996 153.30365000000003 111.43343369999997 C 147.62086500000004 117.22393049999997 144.65426650000003 125.26782239999997 144.64674390000005 134.71456929999997 C 143.44229140000004 134.55809039999997 142.31105050000005 133.99110429999996 141.48574840000003 133.07145709999998 C 140.45986950000002 131.92987079999997 139.98445140000004 130.39338699999996 140.17993170000003 128.85614029999996 C 142.77120980000004 108.44572469999997 158.62226870000003 96.26030749999997 182.58181770000002 96.26030749999997 C 210.6698914 96.26030749999997 225.48568730000002 113.27015699999997 228.2270966 123.99260729999997 C 231.0091553 134.87065139999999 228.4945069 142.55691549999997 227.6562958 144.65402239999997 C 227.3951264 145.31239339999996 227.4076386 146.07008379999996 227.69068910000001 146.73236099999997 L 234.72326660000002 163.14093029999998 C 235.0329132 163.8626404 234.8061523 164.6914673 234.1712341 165.1551514 z M 166.1333771 124.1075516 C 168.87165829999998 121.3176651 172.98924259999998 119.59197239999999 178.3735352 118.97894289999999 C 180.476883 118.73811339999999 182.0626221 116.9741059 182.0626221 114.87465669999999 L 182.0626221 113.15785979999998 C 173.4115753 113.30094909999998 166.5229645 115.70867159999999 162.1337586 120.18183139999998 C 158.2896576 124.09845739999997 156.3259736 129.73512269999998 156.4521485 136.48239139999998 C 156.5237885 139.94189459999998 159.3486634 142.7089997 162.8088532 142.7089997 L 176.75866699999997 142.7089997 L 176.71986389999998 137.1289368 L 166.21781919999998 137.1593323 C 166.21626279999998 137.1593323 166.21469109999998 137.1593323 166.21313479999998 137.1593323 C 165.05744939999997 137.1593323 163.95964049999998 136.66047669999998 163.19805909999997 135.7909699 C 162.45054629999996 134.9347687 162.10806279999997 133.8017731 162.26132199999998 132.6836396 C 162.7492371 129.1133881 164.0519104 126.2281113 166.1333771 124.1075516 z" stroke-linecap="round" />
</g>
</g>
</g>
<g transform="matrix(1.9211538461538462 0 0 1.9211538461538462 821.6317181344917 506.99278830549366)" id="text-logo"  >
<g style=""  paint-order="stroke"   >
		<g transform="matrix(1 0 0 1 -5.684342e-14 -36.70240000000001)" id="text-logo-path-0"  >
<path style="stroke: none; stroke-width: 0; stroke-dasharray: none; stroke-linecap: butt; stroke-dashoffset: 0; stroke-linejoin: miter; stroke-miterlimit: 4; fill: rgb(0,0,0); fill-rule: nonzero; opacity: 1;"  paint-order="stroke"  transform=" translate(-184.24, 19.599999999999998)" d="M 23.24 -16.52 C 24.92 -16.52 26.32 -17.92 26.32 -19.6 C 26.32 -21.28 24.92 -22.68 23.24 -22.68 C 21.56 -22.68 20.16 -21.28 20.16 -19.6 C 20.16 -17.92 21.56 -16.52 23.24 -16.52 Z M 33.49 -31.36 L 36.51 -34.72 C 32.98 -37.86 28.28 -39.76 23.24 -39.76 C 12.21 -39.76 3.08 -30.63 3.08 -19.6 C 3.08 -8.57 12.21 0.56 23.24 0.56 C 28.28 0.56 32.98 -1.34 36.51 -4.48 L 33.49 -7.84 C 30.74 -5.38 27.16 -3.92 23.24 -3.92 C 14.67 -3.92 7.56 -11.03 7.56 -19.6 C 7.56 -28.17 14.67 -35.28 23.24 -35.28 C 27.16 -35.28 30.74 -33.82 33.49 -31.36 Z M 77.95 -13.72 C 77.95 -8.4 73.47 -3.92 68.15 -3.92 C 62.78 -3.92 58.35 -8.4 58.35 -13.72 L 58.35 -39.2 L 53.87 -39.2 L 53.87 -13.72 C 53.87 -5.94 60.31 0.56 68.15 0.56 C 75.94 0.56 82.43 -5.94 82.43 -13.72 L 82.43 -39.2 L 77.95 -39.2 Z M 123.42 0 L 128.46 0 L 118.66 -17.08 C 123.65 -18.14 127.57 -22.68 127.57 -28 C 127.57 -34.16 122.42 -39.2 116.31 -39.2 L 99.79 -39.2 L 99.79 0 L 104.27 0 L 104.27 -16.8 L 113.79 -16.8 Z M 104.27 -34.72 L 116.31 -34.72 C 119.95 -34.72 123.09 -31.7 123.09 -28 C 123.09 -24.36 119.95 -21.28 116.31 -21.28 L 104.27 -21.28 Z M 145.82 0 L 150.3 0 L 150.3 -39.2 L 145.82 -39.2 Z M 187.82 -3.92 C 179.26 -3.92 172.14 -11.03 172.14 -19.6 C 172.14 -28.17 179.26 -35.28 187.82 -35.28 C 196.39 -35.28 203.5 -28.17 203.5 -19.6 C 203.5 -11.03 196.39 -3.92 187.82 -3.92 Z M 187.82 0.56 C 198.86 0.56 207.98 -8.57 207.98 -19.6 C 207.98 -30.63 198.86 -39.76 187.82 -39.76 C 176.79 -39.76 167.66 -30.63 167.66 -19.6 C 167.66 -8.57 176.79 0.56 187.82 0.56 Z M 247.3 -39.2 L 236.6 -39.2 C 230.5 -39.2 225.34 -34.16 225.34 -28 C 225.34 -21.9 230.5 -16.8 236.6 -16.8 L 236.6 -21.28 C 232.96 -21.28 229.82 -24.36 229.82 -28 C 229.82 -31.7 232.96 -34.72 236.6 -34.72 L 247.3 -34.72 Z M 236.6 -21.28 L 239.4 -21.28 C 243.94 -21.28 247.86 -17.47 247.86 -12.94 C 247.86 -8.29 243.94 -4.48 239.4 -4.48 L 227.58 -4.48 L 227.58 0 L 239.4 0 C 246.4 0 252.34 -5.71 252.34 -12.94 C 252.34 -19.94 246.4 -25.76 239.4 -25.76 L 236.6 -25.76 Z M 269.7 0 L 274.18 0 L 274.18 -39.2 L 269.7 -39.2 Z M 302.62 0 L 307.1 0 L 307.1 -34.72 L 318.25 -34.72 L 318.25 -39.2 L 291.54 -39.2 L 291.54 -34.72 L 302.62 -34.72 Z M 347.98 0 L 352.46 0 L 352.46 -19.6 L 365.4 -39.2 L 360.02 -39.2 L 350.22 -24.36 L 340.42 -39.2 L 335.05 -39.2 L 347.98 -19.6 Z" stroke-linecap="round" />
</g>
		<g transform="matrix(1 0 0 1 0.06999999999999318 36.702399999999955)" id="text-logo-path-1"  >
<path style="stroke: none; stroke-width: 0; stroke-dasharray: none; stroke-linecap: butt; stroke-dashoffset: 0; stroke-linejoin: miter; stroke-miterlimit: 4; fill: rgb(0,0,0); fill-rule: nonzero; opacity: 1;"  paint-order="stroke"  transform=" translate(-122.63999999999999, 19.599999999999998)" d="M 3.08 0 L 28.28 0 L 28.28 -4.48 L 7.56 -4.48 L 7.56 -17.36 L 25.48 -17.36 L 25.48 -21.84 L 7.56 -21.84 L 7.56 -34.72 L 28.28 -34.72 L 28.28 -39.2 L 3.08 -39.2 Z M 69.44 0 L 74.2 0 L 74.2 -39.2 L 69.72 -39.2 L 69.72 -7.67 L 50.4 -39.2 L 45.64 -39.2 L 45.64 0 L 50.12 0 L 50.12 -31.42 Z M 111.72 -17.36 L 127.23 -17.36 C 126.67 -13.55 124.77 -10.3 121.97 -7.84 C 119.22 -5.38 115.64 -3.92 111.72 -3.92 C 103.15 -3.92 96.04 -11.03 96.04 -19.6 C 96.04 -28.17 103.15 -35.28 111.72 -35.28 C 115.64 -35.28 119.22 -33.82 121.97 -31.36 L 124.99 -34.72 C 121.46 -37.86 116.76 -39.76 111.72 -39.76 C 100.69 -39.76 91.56 -30.63 91.56 -19.6 C 91.56 -8.57 100.69 0.56 111.72 0.56 C 116.76 0.56 121.46 -1.34 124.99 -4.48 C 129.64 -8.62 132.55 -14.95 131.77 -21.84 L 111.72 -21.84 Z M 149.24 0 L 153.72 0 L 153.72 -39.2 L 149.24 -39.2 Z M 194.88 0 L 199.64 0 L 199.64 -39.2 L 195.16 -39.2 L 195.16 -7.67 L 175.84 -39.2 L 171.08 -39.2 L 171.08 0 L 175.56 0 L 175.56 -31.42 Z M 217 0 L 242.2 0 L 242.2 -4.48 L 221.48 -4.48 L 221.48 -17.36 L 239.4 -17.36 L 239.4 -21.84 L 221.48 -21.84 L 221.48 -34.72 L 242.2 -34.72 L 242.2 -39.2 L 217 -39.2 Z" stroke-linecap="round" />
</g>
</g>
</g>
</svg>