<svg width="389" height="64" viewBox="0 0 389 64" fill="none" xmlns="http://www.w3.org/2000/svg">
<path d="M51.25 12.75H12.75V51.25H51.25V12.75Z" fill="white"/>
<path d="M34.9399 26.6099L36.7039 29.1299L39.4759 27.1139V41.7299H42.4999V22.5779H39.9799L34.9399 26.6099Z" fill="#1E88E5"/>
<path d="M30.1503 31.5537C31.244 30.5492 31.923 29.1562 31.923 27.618C31.923 24.5607 29.2402 22.074 25.9432 22.074C23.1397 22.074 20.7422 23.8397 20.1157 26.3667L23.0155 27.1035C23.3042 25.9415 24.5345 25.098 25.9432 25.098C27.5917 25.098 28.934 26.2285 28.934 27.618C28.934 29.0075 27.5917 30.138 25.9432 30.138H24.1985V33.162H25.9432C27.835 33.162 29.431 34.4762 29.431 36.032C29.431 37.614 27.9155 38.902 26.0518 38.902C24.3682 38.902 22.9298 37.8345 22.7023 36.4205L19.75 36.9035C20.2085 39.7665 22.9175 41.926 26.05 41.926C29.5623 41.926 32.42 39.2817 32.42 36.032C32.42 34.2417 31.538 32.6352 30.1503 31.5537Z" fill="#1E88E5"/>
<path d="M49.5 63.5H14.5L12.75 56.5L14.5 49.5H49.5L51.25 56.5L49.5 63.5Z" fill="#FBC02D"/>
<path d="M56.5 51.25L63.5 49.5V14.5L56.5 12.75L49.5 14.5V49.5L56.5 51.25Z" fill="#4CAF50"/>
<path d="M49.5 14.5L51.25 7.5L49.5 0.5H5.75C2.8503 0.5 0.5 2.8503 0.5 5.75V49.5L7.5 51.25L14.5 49.5V14.5H49.5Z" fill="#1E88E5"/>
<path d="M49.5 49.5V63.5L63.5 49.5H49.5Z" fill="#E53935"/>
<path d="M58.25 0.5H49.5V14.5H63.5V5.75C63.5 2.8503 61.1497 0.5 58.25 0.5Z" fill="#1565C0"/>
<path d="M5.75 63.5H14.5V49.5H0.5V58.25C0.5 61.15 2.8503 63.5 5.75 63.5Z" fill="#1565C0"/>
<path d="M100.77 42.7783C98.089 42.7783 95.621 42.128 93.365 40.8273C91.109 39.527 89.318 37.7357 87.9907 35.453C86.6637 33.1707 86 30.6493 86 27.889C86 25.129 86.6637 22.6077 87.9907 20.325C89.318 18.0427 91.109 16.251 93.365 14.9507C95.621 13.6503 98.089 13 100.77 13C102.866 13 104.83 13.3717 106.662 14.1147C108.52 14.8577 110.046 15.906 111.24 17.2597L108.811 19.688C107.909 18.5733 106.755 17.724 105.348 17.1403C103.941 16.5297 102.429 16.2247 100.81 16.2247C98.793 16.2247 96.908 16.7157 95.157 17.6977C93.431 18.653 92.038 20.02 90.976 21.798C89.941 23.5497 89.424 25.58 89.424 27.889C89.424 30.198 89.941 32.2417 90.976 34.02C92.038 35.7717 93.445 37.1383 95.196 38.1203C96.948 39.0757 98.819 39.5537 100.81 39.5537C102.72 39.5537 104.313 39.2617 105.587 38.6777C106.887 38.0673 108.002 37.271 108.931 36.289C109.621 35.546 110.178 34.657 110.603 33.6217C111.028 32.56 111.293 31.3923 111.399 30.1183H100.849V26.9733H114.544C114.677 27.7167 114.743 28.4067 114.743 29.0437C114.743 30.7953 114.465 32.507 113.907 34.179C113.35 35.8247 112.461 37.271 111.24 38.5183C108.612 41.3583 105.122 42.7783 100.77 42.7783Z" fill="#7E7E7E"/>
<path d="M128.262 42.7783C126.272 42.7783 124.48 42.3003 122.888 41.3449C121.295 40.3896 120.048 39.0889 119.146 37.4436C118.27 35.7979 117.832 33.9799 117.832 31.9896C117.832 29.9989 118.27 28.1809 119.146 26.5356C120.048 24.8899 121.295 23.5896 122.888 22.6339C124.48 21.6786 126.272 21.2009 128.262 21.2009C130.253 21.2009 132.044 21.6786 133.637 22.6339C135.229 23.5896 136.463 24.8899 137.339 26.5356C138.241 28.1809 138.693 29.9989 138.693 31.9896C138.693 33.9799 138.241 35.7979 137.339 37.4436C136.463 39.0889 135.229 40.3896 133.637 41.3449C132.044 42.3003 130.253 42.7783 128.262 42.7783ZM128.262 39.7126C129.51 39.7126 130.664 39.4076 131.726 38.7969C132.814 38.1599 133.676 37.2576 134.313 36.0899C134.977 34.9223 135.309 33.5553 135.309 31.9896C135.309 30.4236 134.977 29.0569 134.313 27.8889C133.676 26.7213 132.814 25.8323 131.726 25.2216C130.664 24.5846 129.51 24.2663 128.262 24.2663C127.015 24.2663 125.847 24.5846 124.759 25.2216C123.671 25.8323 122.795 26.7213 122.131 27.8889C121.495 29.0569 121.176 30.4236 121.176 31.9896C121.176 33.5553 121.495 34.9223 122.131 36.0899C122.795 37.2576 123.671 38.1599 124.759 38.7969C125.847 39.4076 127.015 39.7126 128.262 39.7126Z" fill="#7E7E7E"/>
<path d="M151.977 42.7783C149.987 42.7783 148.195 42.3003 146.603 41.3449C145.011 40.3896 143.763 39.0889 142.861 37.4436C141.985 35.7979 141.547 33.9799 141.547 31.9896C141.547 29.9989 141.985 28.1809 142.861 26.5356C143.763 24.8899 145.011 23.5896 146.603 22.6339C148.195 21.6786 149.987 21.2009 151.977 21.2009C153.968 21.2009 155.759 21.6786 157.352 22.6339C158.944 23.5896 160.178 24.8899 161.054 26.5356C161.957 28.1809 162.408 29.9989 162.408 31.9896C162.408 33.9799 161.957 35.7979 161.054 37.4436C160.178 39.0889 158.944 40.3896 157.352 41.3449C155.759 42.3003 153.968 42.7783 151.977 42.7783ZM151.977 39.7126C153.225 39.7126 154.379 39.4076 155.441 38.7969C156.529 38.1599 157.392 37.2576 158.029 36.0899C158.692 34.9223 159.024 33.5553 159.024 31.9896C159.024 30.4236 158.692 29.0569 158.029 27.8889C157.392 26.7213 156.529 25.8323 155.441 25.2216C154.379 24.5846 153.225 24.2663 151.977 24.2663C150.73 24.2663 149.562 24.5846 148.474 25.2216C147.386 25.8323 146.51 26.7213 145.847 27.8889C145.21 29.0569 144.891 30.4236 144.891 31.9896C144.891 33.5553 145.21 34.9223 145.847 36.0899C146.51 37.2576 147.386 38.1599 148.474 38.7969C149.562 39.4076 150.73 39.7126 151.977 39.7126Z" fill="#7E7E7E"/>
<path d="M175.255 51.3773C172.866 51.3773 170.889 50.8199 169.323 49.7053C167.784 48.5903 166.749 47.2503 166.218 45.6843L169.284 44.3706C169.735 45.5383 170.478 46.4806 171.513 47.1969C172.575 47.9403 173.822 48.3116 175.255 48.3116C177.352 48.3116 178.971 47.7013 180.112 46.4806C181.28 45.2596 181.864 43.5346 181.864 41.3053V39.0359H181.704C181.041 40.0709 180.099 40.9203 178.878 41.5839C177.684 42.2206 176.317 42.5393 174.777 42.5393C173.026 42.5393 171.42 42.0879 169.96 41.1856C168.527 40.2833 167.386 39.0226 166.537 37.4036C165.687 35.7846 165.263 33.9403 165.263 31.8699C165.263 29.8266 165.687 27.9953 166.537 26.3763C167.386 24.7306 168.527 23.4569 169.96 22.5543C171.42 21.6519 173.026 21.2009 174.777 21.2009C176.317 21.2009 177.684 21.5326 178.878 22.1963C180.099 22.8329 181.041 23.6823 181.704 24.7439H181.864V21.8379H185.088V41.3449C185.088 44.6093 184.186 47.0909 182.381 48.7896C180.576 50.5146 178.201 51.3773 175.255 51.3773ZM175.255 39.4739C176.476 39.4739 177.577 39.1686 178.559 38.5583C179.568 37.9479 180.364 37.0719 180.948 35.9306C181.558 34.7896 181.864 33.4359 181.864 31.8699C181.864 30.2776 181.558 28.9109 180.948 27.7696C180.364 26.6283 179.568 25.7659 178.559 25.1819C177.577 24.5716 176.476 24.2663 175.255 24.2663C174.034 24.2663 172.92 24.5716 171.911 25.1819C170.902 25.7923 170.093 26.6683 169.483 27.8093C168.899 28.9506 168.607 30.3043 168.607 31.8699C168.607 33.4359 168.899 34.8026 169.483 35.9706C170.093 37.1116 170.902 37.9876 171.911 38.5979C172.92 39.1819 174.034 39.4739 175.255 39.4739Z" fill="#7E7E7E"/>
<path d="M190.091 13.637H193.475V42.1413H190.091V13.637Z" fill="#7E7E7E"/>
<path d="M207.331 42.7783C205.394 42.7783 203.656 42.3136 202.116 41.3846C200.577 40.4559 199.369 39.1819 198.493 37.5629C197.644 35.9176 197.22 34.0729 197.22 32.0293C197.22 30.0653 197.618 28.2606 198.414 26.6149C199.237 24.9696 200.391 23.6559 201.877 22.6739C203.364 21.6919 205.089 21.2009 207.053 21.2009C209.043 21.2009 210.768 21.6519 212.228 22.5543C213.688 23.4303 214.802 24.6509 215.572 26.2169C216.368 27.7829 216.766 29.5743 216.766 31.5913C216.766 31.9896 216.727 32.3346 216.647 32.6266H200.603C200.683 34.1659 201.055 35.4663 201.718 36.5279C202.382 37.5896 203.218 38.3856 204.226 38.9166C205.261 39.4473 206.336 39.7126 207.451 39.7126C210.052 39.7126 212.056 38.4919 213.462 36.0503L216.329 37.4436C215.453 39.0889 214.258 40.3896 212.746 41.3449C211.259 42.3003 209.455 42.7783 207.331 42.7783ZM213.184 29.8396C213.13 28.9903 212.892 28.1413 212.467 27.2919C212.042 26.4426 211.365 25.7259 210.437 25.1419C209.534 24.5583 208.393 24.2663 207.013 24.2663C205.42 24.2663 204.067 24.7839 202.952 25.8189C201.864 26.8273 201.147 28.1676 200.802 29.8396H213.184Z" fill="#7E7E7E"/>
<path d="M243.255 42.7783C240.495 42.7783 237.987 42.128 235.731 40.8273C233.475 39.527 231.697 37.7487 230.396 35.493C229.122 33.2103 228.485 30.6757 228.485 27.889C228.485 25.1023 229.122 22.581 230.396 20.325C231.697 18.0427 233.475 16.251 235.731 14.9507C237.987 13.6503 240.495 13 243.255 13C245.378 13 247.316 13.4113 249.067 14.234C250.846 15.0303 252.385 16.1717 253.685 17.6577L251.257 20.0067C250.169 18.706 248.974 17.7507 247.674 17.1403C246.4 16.5297 244.927 16.2247 243.255 16.2247C241.185 16.2247 239.287 16.7157 237.562 17.6977C235.837 18.653 234.457 20.02 233.422 21.798C232.413 23.5497 231.909 25.58 231.909 27.889C231.909 30.198 232.413 32.2417 233.422 34.02C234.457 35.7717 235.837 37.1383 237.562 38.1203C239.287 39.0757 241.185 39.5537 243.255 39.5537C246.705 39.5537 249.638 38.1337 252.053 35.2937L254.521 37.6823C253.194 39.2483 251.562 40.4957 249.625 41.4247C247.687 42.327 245.564 42.7783 243.255 42.7783Z" fill="#7E7E7E"/>
<path d="M264.421 42.7783C262.935 42.7783 261.608 42.4863 260.44 41.9023C259.272 41.3183 258.37 40.5223 257.733 39.5136C257.096 38.4786 256.777 37.3109 256.777 36.0103C256.777 33.8606 257.587 32.1886 259.206 30.9943C260.825 29.7733 262.868 29.1629 265.337 29.1629C266.558 29.1629 267.686 29.2956 268.721 29.5609C269.782 29.8266 270.592 30.1316 271.149 30.4766V29.2426C271.149 27.7296 270.618 26.5223 269.557 25.6199C268.495 24.6909 267.155 24.2266 265.536 24.2266C264.395 24.2266 263.346 24.4786 262.391 24.9829C261.435 25.4606 260.679 26.1373 260.122 27.0133L257.574 25.1023C258.37 23.8813 259.458 22.9259 260.838 22.2359C262.245 21.5459 263.797 21.2009 265.496 21.2009C268.256 21.2009 270.419 21.9306 271.985 23.3903C273.577 24.8236 274.374 26.7876 274.374 29.2823V42.1413H271.149V39.2349H270.99C270.406 40.2169 269.53 41.0529 268.362 41.7429C267.195 42.4329 265.881 42.7783 264.421 42.7783ZM264.74 39.7923C265.881 39.7923 266.942 39.5003 267.924 38.9166C268.906 38.3326 269.689 37.5496 270.273 36.5676C270.857 35.5856 271.149 34.5109 271.149 33.3429C270.512 32.9183 269.729 32.5733 268.8 32.3079C267.871 32.0426 266.889 31.9099 265.854 31.9099C263.996 31.9099 262.59 32.2946 261.634 33.0643C260.705 33.8339 260.241 34.8293 260.241 36.0503C260.241 37.1649 260.666 38.0673 261.515 38.7573C262.364 39.4473 263.439 39.7923 264.74 39.7923Z" fill="#7E7E7E"/>
<path d="M279.082 13.637H282.465V42.1413H279.082V13.637Z" fill="#7E7E7E"/>
<path d="M296.321 42.7783C294.384 42.7783 292.645 42.3136 291.106 41.3846C289.567 40.4559 288.359 39.1819 287.483 37.5629C286.634 35.9176 286.209 34.0729 286.209 32.0293C286.209 30.0653 286.608 28.2606 287.404 26.6149C288.227 24.9696 289.381 23.6559 290.867 22.6739C292.354 21.6919 294.079 21.2009 296.043 21.2009C298.033 21.2009 299.758 21.6519 301.218 22.5543C302.678 23.4303 303.792 24.6509 304.562 26.2169C305.358 27.7829 305.756 29.5743 305.756 31.5913C305.756 31.9896 305.717 32.3346 305.637 32.6266H289.593C289.673 34.1659 290.045 35.4663 290.708 36.5279C291.372 37.5896 292.208 38.3856 293.216 38.9166C294.251 39.4473 295.326 39.7126 296.441 39.7126C299.042 39.7126 301.045 38.4919 302.452 36.0503L305.318 37.4436C304.443 39.0889 303.248 40.3896 301.736 41.3449C300.249 42.3003 298.445 42.7783 296.321 42.7783ZM302.173 29.8396C302.12 28.9903 301.882 28.1413 301.457 27.2919C301.032 26.4426 300.355 25.7259 299.427 25.1419C298.524 24.5583 297.383 24.2663 296.003 24.2663C294.41 24.2663 293.057 24.7839 291.942 25.8189C290.854 26.8273 290.137 28.1676 289.792 29.8396H302.173Z" fill="#7E7E7E"/>
<path d="M309.717 21.8379H312.941V24.8236H313.101C313.658 23.8149 314.547 22.9659 315.768 22.2756C316.989 21.5593 318.289 21.2009 319.669 21.2009C322.111 21.2009 323.967 21.9176 325.244 23.3506C326.544 24.7573 327.194 26.6813 327.194 29.1233V42.1413H323.811V29.6406C323.811 27.7563 323.357 26.3896 322.456 25.5403C321.554 24.6909 320.319 24.2663 318.754 24.2663C317.665 24.2663 316.683 24.5716 315.808 25.1819C314.958 25.7923 314.295 26.6019 313.817 27.6103C313.339 28.5923 313.101 29.6273 313.101 30.7156V42.1413H309.717V21.8379Z" fill="#7E7E7E"/>
<path d="M340.631 42.7783C338.828 42.7783 337.181 42.3136 335.694 41.3846C334.234 40.456 333.081 39.182 332.231 37.563C331.381 35.9176 330.958 34.0596 330.958 31.9896C330.958 29.946 331.381 28.1013 332.231 26.456C333.081 24.8103 334.234 23.5233 335.694 22.5943C337.181 21.6653 338.828 21.201 340.631 21.201C342.198 21.201 343.591 21.5593 344.811 22.2756C346.031 22.966 346.961 23.8283 347.598 24.8633H347.758L347.598 22.037V13.637H350.981V42.1413H347.758V39.1553H347.598C346.961 40.164 346.031 41.0266 344.811 41.743C343.591 42.433 342.198 42.7783 340.631 42.7783ZM341.031 39.7126C342.224 39.7126 343.324 39.3943 344.334 38.7573C345.368 38.1203 346.191 37.218 346.801 36.0503C347.438 34.8823 347.758 33.529 347.758 31.9896C347.758 30.4503 347.438 29.0966 346.801 27.929C346.191 26.761 345.368 25.8586 344.334 25.2216C343.324 24.5846 342.224 24.2663 341.031 24.2663C339.861 24.2663 338.761 24.5846 337.724 25.2216C336.691 25.8586 335.854 26.7743 335.218 27.9686C334.608 29.1363 334.301 30.4766 334.301 31.9896C334.301 33.5023 334.608 34.856 335.218 36.0503C335.854 37.218 336.691 38.1203 337.724 38.7573C338.761 39.3943 339.861 39.7126 341.031 39.7126Z" fill="#7E7E7E"/>
<path d="M362.274 42.7783C360.791 42.7783 359.461 42.4863 358.294 41.9023C357.128 41.3183 356.224 40.5223 355.588 39.5136C354.951 38.4786 354.631 37.3109 354.631 36.0103C354.631 33.8606 355.441 32.1886 357.061 30.9943C358.681 29.7733 360.724 29.1629 363.191 29.1629C364.411 29.1629 365.541 29.2956 366.574 29.5609C367.638 29.8266 368.448 30.1316 369.004 30.4766V29.2426C369.004 27.7296 368.474 26.5223 367.411 25.6199C366.351 24.6909 365.011 24.2266 363.391 24.2266C362.248 24.2266 361.201 24.4786 360.244 24.9829C359.291 25.4606 358.534 26.1373 357.978 27.0133L355.428 25.1023C356.224 23.8813 357.314 22.9259 358.694 22.2359C360.101 21.5459 361.651 21.2009 363.351 21.2009C366.111 21.2009 368.274 21.9306 369.841 23.3903C371.431 24.8236 372.228 26.7876 372.228 29.2823V42.1413H369.004V39.2349H368.844C368.261 40.2169 367.384 41.0529 366.218 41.7429C365.048 42.4329 363.734 42.7783 362.274 42.7783ZM362.594 39.7923C363.734 39.7923 364.798 39.5003 365.778 38.9166C366.761 38.3326 367.544 37.5496 368.128 36.5676C368.711 35.5856 369.004 34.5109 369.004 33.3429C368.368 32.9183 367.584 32.5733 366.654 32.3079C365.724 32.0426 364.744 31.9099 363.708 31.9099C361.851 31.9099 360.444 32.2946 359.488 33.0643C358.561 33.8339 358.094 34.8293 358.094 36.0503C358.094 37.1649 358.521 38.0673 359.371 38.7573C360.218 39.4473 361.294 39.7923 362.594 39.7923Z" fill="#7E7E7E"/>
<path d="M376.934 21.8381H380.161V25.1024H380.321C380.717 23.9877 381.487 23.0721 382.627 22.3554C383.771 21.6124 384.964 21.2407 386.211 21.2407C387.141 21.2407 387.937 21.3734 388.601 21.6387V25.3014C387.751 24.8767 386.794 24.6644 385.734 24.6644C384.751 24.6644 383.851 24.9431 383.027 25.5004C382.204 26.0577 381.541 26.8144 381.037 27.7697C380.557 28.6987 380.321 29.7071 380.321 30.7954V42.1414H376.934V21.8381Z" fill="#7E7E7E"/>
</svg>
