<svg width="400" height="100" viewBox="0 0 400 100" fill="none" xmlns="http://www.w3.org/2000/svg">
  <!-- HubSpot Official Logo -->
  <!-- H -->
  <rect x="10" y="20" width="16" height="60" fill="#33475B"/>
  <rect x="46" y="20" width="16" height="60" fill="#33475B"/>
  <rect x="10" y="42" width="52" height="16" fill="#33475B"/>
  
  <!-- u -->
  <path d="M80 35V53C80 59 84 63 90 63C96 63 100 59 100 53V35H116V53C116 67 106 79 90 79C74 79 64 67 64 53V35H80Z" fill="#33475B"/>
  
  <!-- b -->
  <rect x="130" y="20" width="16" height="60" fill="#33475B"/>
  <path d="M146 53C146 59 150 63 156 63C162 63 166 59 166 53V35H182V53C182 67 172 79 156 79C150 79 144 77 140 73V80H130V20H146V53Z" fill="#33475B"/>
  
  <!-- S -->
  <path d="M200 40C200 34 204 30 210 30C214 30 218 32 220 36L230 28C226 22 218 18 210 18C198 18 188 28 188 40C188 52 198 62 210 62C218 62 226 58 230 52L220 44C218 48 214 50 210 50C204 50 200 46 200 40Z" fill="#33475B"/>
  
  <!-- p -->
  <path d="M240 35H256V39C260 36 265 34 270 34C282 34 292 44 292 56C292 68 282 78 270 78C265 78 260 76 256 73V95H240V35ZM256 56C256 62 260 66 266 66C272 66 276 62 276 56C276 50 272 46 266 46C260 46 256 50 256 56Z" fill="#33475B"/>
  
  <!-- Sprocket (orange) -->
  <g transform="translate(305, 30)">
    <path d="M30 8V5C30 3 28 1 26 1H24V0C24 -0.5 23.5 -1 23 -1C22.5 -1 22 -0.5 22 0V1H18V0C18 -0.5 17.5 -1 17 -1C16.5 -1 16 -0.5 16 0V1H14C12 1 10 3 10 5V8L5 13L20 28L35 13L30 8Z" fill="#FF7A59"/>
    <circle cx="20" cy="38" r="9" fill="#FF7A59"/>
    <rect x="18" y="26" width="4" height="12" fill="#FF7A59"/>
  </g>
  
  <!-- o -->
  <circle cx="350" cy="56" r="11" fill="#33475B"/>
  <circle cx="350" cy="56" r="6" fill="white"/>
  
  <!-- t -->
  <rect x="370" y="25" width="16" height="54" fill="#33475B"/>
  <rect x="364" y="35" width="28" height="14" fill="#33475B"/>
</svg>
