<svg width="160" height="40" viewBox="0 0 160 40" fill="none" xmlns="http://www.w3.org/2000/svg">
  <g transform="translate(0, 10)">
    <path d="M8 4C6.9 4 6.2 4.6 5.8 5.6C5.2 5.4 4.6 5.4 4 5.6C2.4 6 1 7.2 1 8.8C1 10.4 2.4 11.6 4 12C4.2 12.96 5 13.6 6 13.6H16C17 13.6 17.8 12.96 18 12C19.6 11.6 21 10.4 21 8.8C21 7.2 19.6 6 18 5.6C17.9 5 17.7 4.6 17.3 4.2C16.9 3.8 16.4 3.6 15.8 3.6C15.2 3.6 14.7 3.8 14.2 4.2C13.8 3.4 13 2.8 12 2.8C11 2.8 10.2 3.4 9.8 4.2C9.3 3.8 8.8 3.6 8.2 3.6C7.9 3.6 7.6 3.8 7.4 4Z" fill="#00A1E0"/>
    <path d="M6 14.8C5 14.8 4.2 15.4 3.8 16.4C3.2 16.2 2.6 16.2 2 16.4C0.4 16.8 -1 18 -1 19.6C-1 21.2 0.4 22.4 2 22.8C2.2 23.76 3 24.4 4 24.4H14C15 24.4 15.8 23.76 16 22.8C17.6 22.4 19 21.2 19 19.6C19 18 17.6 16.8 16 16.4C15.9 15.8 15.7 15.4 15.3 15C14.9 14.6 14.4 14.4 13.8 14.4C13.2 14.4 12.7 14.6 12.2 15C11.8 14.2 11 13.6 10 13.6C9 13.6 8.2 14.2 7.8 15C7.3 14.6 6.8 14.4 6.2 14.4C5.9 14.4 5.6 14.6 5.4 14.8Z" fill="#1AB6FF"/>
  </g>
  <text x="28" y="22" fill="#5F6368" font-family="Arial, sans-serif" font-size="15" font-weight="600">Salesforce</text>
</svg>

