<svg width="280" height="60" viewBox="0 0 280 60" fill="none" xmlns="http://www.w3.org/2000/svg">
  <!-- Salesforce Logo -->
  <g transform="translate(0, 14)">
    <!-- Cloud icon -->
    <path d="M16 8C14.4 8 13 8.8 12.2 10.2C11.2 10 10.2 10 9.2 10.4C6.4 11.6 4.4 14.4 4.4 17.6C4.4 20.8 6.4 23.6 9.2 24.8C10 26.2 11.6 27.2 13.4 27.2H34.6C36.4 27.2 38 26.2 38.8 24.8C41.6 23.6 43.6 20.8 43.6 17.6C43.6 14.4 41.6 11.6 38.8 10.4C38.6 9.2 38 8.2 37 7.4C36.2 6.6 35 6.2 33.8 6.2C32.6 6.2 31.4 6.6 30.4 7.4C29.6 5.8 28 4.8 26.2 4.8C24.4 4.8 22.8 5.8 22 7.4C21 6.6 19.8 6.2 18.6 6.2C17.8 6.2 17 6.4 16.4 6.8C15.6 7.2 15 7.8 14.6 8.6C14 8.2 13.2 8 12.4 8C10.6 8 9 9 8.2 10.6C6 11.4 4.4 13.4 4.4 15.8C4.4 18.2 6 20.2 8.2 21C8.6 22.4 9.8 23.4 11.2 23.8C11.8 25.4 13.4 26.4 15.2 26.4H32.8C34.6 26.4 36.2 25.4 36.8 23.8C38.2 23.4 39.4 22.4 39.8 21C42 20.2 43.6 18.2 43.6 15.8C43.6 13.4 42 11.4 39.8 10.6C39 9 37.4 8 35.6 8C34.8 8 34 8.2 33.4 8.6C32.8 7.8 32 7.2 31 6.8C30.4 6.4 29.6 6.2 28.8 6.2C27.6 6.2 26.4 6.6 25.4 7.4C24.6 5.8 23 4.8 21.2 4.8C19.4 4.8 17.8 5.8 17 7.4C16 6.6 14.8 6.2 13.6 6.2C12.8 6.2 12 6.4 11.4 6.8C10.6 7.2 10 7.8 9.6 8.6C9 8.2 8.2 8 7.4 8C5.6 8 4 9 3.2 10.6Z" fill="#00A1E0"/>
  </g>
  <!-- Text -->
  <text x="52" y="34" fill="#00A1E0" font-family="'Salesforce Sans', Arial, sans-serif" font-size="24" font-weight="700">salesforce</text>
</svg>
