<svg width="400" height="120" viewBox="0 0 400 120" fill="none" xmlns="http://www.w3.org/2000/svg">
  <!-- Salesforce Cloud Logo -->
  <g transform="translate(20, 30)">
    <!-- Main cloud shape -->
    <path d="M100 25C95 25 90 27 87 31C84 30 81 29 78 29C68 29 60 37 60 47C60 48 60 49 60 50C51 52 44 60 44 70C44 81 53 90 64 90H136C147 90 156 81 156 70C156 62 151 55 144 51C144 50 144 49 144 48C144 38 136 30 126 30C124 30 122 30 120 31C116 24 108 19 99 19C92 19 86 22 82 27C79 26 76 25 73 25C62 25 53 34 53 45C53 46 53 47 53 48C44 50 37 58 37 68C37 79 46 88 57 88H143C154 88 163 79 163 68C163 60 158 53 151 49C151 48 151 47 151 46C151 36 143 28 133 28C131 28 129 28 127 29C123 22 115 17 106 17C99 17 93 20 89 25C86 24 83 23 80 23C69 23 60 32 60 43C60 44 60 45 60 46Z" fill="#00A4EF"/>
    
    <!-- Smaller front cloud -->
    <path d="M50 50C47 50 44 51 42 53C40 52 38 52 36 52C31 52 27 56 27 61C27 66 31 70 36 70H76C81 70 85 66 85 61C85 57 82 54 79 52C79 52 79 51 79 51C79 46 75 42 70 42C69 42 68 42 67 43C65 39 61 37 57 37C54 37 51 38 49 40C48 40 47 39 46 39C42 39 38 43 38 47C38 47 38 48 38 48C34 49 31 52 31 56C31 60 34 63 38 63H76C80 63 83 60 83 56C83 53 81 51 79 50C79 50 79 49 79 49C79 45 76 42 72 42C71 42 70 42 69 43C67 40 64 38 61 38C59 38 57 39 56 40C55 39 54 39 53 39C50 39 47 41 47 44C47 45 47 45 47 46Z" fill="#1AB6FF"/>
  </g>
  
  <!-- salesforce text -->
  <text x="180" y="70" fill="#00A4EF" font-family="'Salesforce Sans', Arial, sans-serif" font-size="34" font-weight="700">salesforce</text>
</svg>
